<svg width="800" height="800" viewBox="0 0 128 128" xmlns="http://www.w3.org/2000/svg" aria-hidden="true" class="iconify iconify--noto"><path d="m68.05 7.23 13.46 30.7a7.05 7.05 0 0 0 5.82 4.19l32.79 2.94c3.71.54 5.19 5.09 2.5 7.71l-24.7 20.75c-2 1.68-2.91 4.32-2.36 6.87l7.18 33.61c.63 3.69-3.24 6.51-6.56 4.76L67.56 102a7.03 7.03 0 0 0-7.12 0l-28.62 16.75c-3.31 1.74-7.19-1.07-6.56-4.76l7.18-33.61c.54-2.55-.36-5.19-2.36-6.87L5.37 52.78c-2.68-2.61-1.2-7.17 2.5-7.71l32.79-2.94a7.05 7.05 0 0 0 5.82-4.19l13.46-30.7c1.67-3.36 6.45-3.36 8.11-.01" fill="gray"/></svg>
