<svg xmlns="http://www.w3.org/2000/svg" viewBox="0 0 512 512" xml:space="preserve"><path style="fill:#d3d3d3" d="M256 512C114.839 512 0 397.161 0 256S114.839 0 256 0s256 114.839 256 256-114.839 256-256 256"/><path style="fill:#d3d3d3" d="M512 256C512 114.839 397.161 0 256 0v512c141.161 0 256-114.839 256-256"/><path style="fill:#fff" d="M388.481 318.4H121.292c-9.225 0-16.699-7.475-16.699-16.699s7.475-16.699 16.699-16.699h267.189c9.225 0 16.699 7.475 16.699 16.699s-7.474 16.699-16.699 16.699m0-100.196H121.292c-9.225 0-16.699-7.475-16.699-16.699s7.475-16.699 16.699-16.699h267.189c9.225 0 16.699 7.475 16.699 16.699s-7.474 16.699-16.699 16.699"/><path style="fill:#fff" d="M388.481 285.001H254.887V318.4h133.594c9.225 0 16.699-7.475 16.699-16.699s-7.474-16.7-16.699-16.7m0-100.196H254.887v33.399h133.594c9.225 0 16.699-7.475 16.699-16.699s-7.474-16.7-16.699-16.7"/></svg>
