<svg xmlns="http://www.w3.org/2000/svg" viewBox="0 0 512 512" xml:space="preserve"><path style="fill:#a5eb78" d="M512 256.001C512 114.615 397.385 0 255.999 0S0 114.615 0 256.001C0 397.385 114.615 512 255.999 512S512 397.385 512 256.001"/><path style="fill:#fff" d="m158.815 392.039 93.111-48.308a8.85 8.85 0 0 1 8.148 0l93.111 48.308c7.261 3.767 15.306-3.494 12.302-11.102l-101.26-256.404c-2.947-7.462-13.508-7.462-16.456 0L146.513 380.937c-3.004 7.608 5.042 14.869 12.302 11.102"/><path style="opacity:.1" d="M68.872 256.001c0-129.706 96.466-236.866 221.564-253.688A258 258 0 0 0 256.001 0C114.615 0 0 114.615 0 256.001S114.615 512 256.001 512c11.68 0 23.171-.798 34.436-2.313C165.338 492.865 68.872 385.705 68.872 256.001"/></svg>
