<svg xmlns="http://www.w3.org/2000/svg" viewBox="0 0 505 505" xml:space="preserve"><circle style="fill:#ffd05b" cx="252.5" cy="252.5" r="252.5"/><path style="fill:#324a5e" d="M387.9 225.3H256.2v-50.9h-15.8v50.9H108.7c-4.4 0-7.9 3.5-7.9 7.9v53.4h15.8v-45.5h123.8v45.5h15.8v-45.5H380v45.5h15.8v-53.4c0-4.4-3.5-7.9-7.9-7.9"/><path style="fill:#fff" d="M305.7 189.7H190.9c-1.9 0-3.5-1.6-3.5-3.5V71.4c0-1.9 1.6-3.5 3.5-3.5h114.8c1.9 0 3.5 1.6 3.5 3.5v114.8c0 2-1.5 3.5-3.5 3.5m-12.1 182.4h-90.5c-1.5 0-2.8-1.2-2.8-2.8v-90.5c0-1.5 1.2-2.8 2.8-2.8h90.5c1.5 0 2.8 1.2 2.8 2.8v90.5c-.1 1.6-1.3 2.8-2.8 2.8"/><path style="fill:#ff7058" d="M215.6 96.1H281v65.4h-65.4zm5.8 201.1h53.8V351h-53.8z"/><path style="fill:#fff" d="M433.2 372.1h-90.5c-1.5 0-2.8-1.2-2.8-2.8v-90.5c0-1.5 1.2-2.8 2.8-2.8h90.5c1.5 0 2.8 1.2 2.8 2.8v90.5c-.1 1.6-1.3 2.8-2.8 2.8m-279.2 0H63.5c-1.5 0-2.8-1.2-2.8-2.8v-90.5c0-1.5 1.2-2.8 2.8-2.8H154c1.5 0 2.8 1.2 2.8 2.8v90.5c-.1 1.6-1.3 2.8-2.8 2.8"/><path style="fill:#ff7058" d="M361 297.2h53.8V351H361zm-279.2 0h53.8V351H81.8z"/></svg>
