<svg xmlns="http://www.w3.org/2000/svg" viewBox="0 0 512 512" xml:space="preserve"><path style="fill:#e74c3c" d="M512 256.001C512 114.615 397.385 0 255.999 0S0 114.615 0 256.001C0 397.385 114.615 512 255.999 512S512 397.385 512 256.001"/><path style="fill:#fff" d="m353.185 119.961-93.111 48.308a8.85 8.85 0 0 1-8.148 0l-93.111-48.308c-7.261-3.767-15.306 3.494-12.302 11.102l101.26 256.404c2.947 7.462 13.508 7.462 16.456 0l101.258-256.404c3.004-7.608-5.042-14.869-12.302-11.102"/><path style="opacity:.1" d="M443.128 256.001c0-129.706-96.466-236.866-221.564-253.688A258 258 0 0 1 256.001 0C397.385 0 512 114.615 512 256.001S397.385 512 256.001 512a258 258 0 0 1-34.436-2.313c125.097-16.822 221.563-123.982 221.563-253.686"/></svg>
